# Blender v3.2.2 OBJ File: ''
# www.blender.org
mtllib board.mtl
o board
v -2.550000 -0.000000 1.000000
v -2.550000 -0.300000 -1.000000
v -2.550000 -0.300000 1.000000
v -2.550000 0.000000 -1.000000
v -2.250000 -0.000000 0.700000
v -2.250000 -0.100000 -0.700000
v -2.250000 -0.100000 0.700000
v -2.250000 0.000000 -0.700000
v 2.450000 -0.000000 0.900000
v 2.450000 -0.100000 -0.900000
v 2.450000 -0.100000 0.900000
v 2.450000 0.000000 -0.900000
v -2.450000 -0.100000 0.900000
v -2.450000 -0.100000 -0.900000
v -2.450000 -0.000000 0.900000
v -2.450000 0.000000 -0.900000
v 2.250000 -0.100000 0.700000
v 2.250000 -0.100000 -0.700000
v 2.250000 -0.000000 0.700000
v 2.250000 0.000000 -0.700000
v 2.550000 -0.300000 1.000000
v 2.550000 -0.300000 -1.000000
v 2.550000 -0.000000 1.000000
v 2.550000 0.000000 -1.000000
v 2.550000 -0.300000 1.000000
v -2.550000 -0.000000 1.000000
v -2.550000 -0.300000 1.000000
v 2.550000 -0.000000 1.000000
v -0.050000 -0.100000 0.700000
v -2.250000 -0.000000 0.700000
v -2.250000 -0.100000 0.700000
v -0.050000 -0.000000 0.700000
v 0.050000 -0.100000 0.700000
v 0.050000 -0.000000 0.700000
v 2.250000 -0.100000 0.700000
v 2.250000 -0.000000 0.700000
v 2.450000 -0.100000 -0.900000
v -2.450000 0.000000 -0.900000
v -2.450000 -0.100000 -0.900000
v 2.450000 0.000000 -0.900000
v -2.450000 -0.100000 0.900000
v -2.450000 -0.000000 0.900000
v 2.450000 -0.100000 0.900000
v 2.450000 -0.000000 0.900000
v -2.250000 -0.100000 -0.700000
v -2.250000 0.000000 -0.700000
v -0.050000 -0.100000 -0.700000
v -0.050000 0.000000 -0.700000
v 0.050000 -0.100000 -0.700000
v 0.050000 0.000000 -0.700000
v 2.250000 -0.100000 -0.700000
v 2.250000 0.000000 -0.700000
v -2.550000 -0.300000 -1.000000
v -2.550000 0.000000 -1.000000
v 2.550000 -0.300000 -1.000000
v 2.550000 0.000000 -1.000000
v -2.550000 -0.300000 -1.000000
v 2.550000 -0.300000 1.000000
v -2.550000 -0.300000 1.000000
v 2.550000 -0.300000 -1.000000
v -2.450000 -0.100000 0.900000
v 2.450000 -0.100000 0.900000
v -2.250000 -0.100000 0.700000
v -0.050000 -0.100000 0.700000
v 0.050000 -0.100000 0.700000
v 2.250000 -0.100000 0.700000
v -2.250000 -0.100000 -0.700000
v 2.250000 -0.100000 -0.700000
v -0.050000 -0.100000 -0.700000
v 0.050000 -0.100000 -0.700000
v -2.450000 -0.100000 -0.900000
v 2.450000 -0.100000 -0.900000
v -2.550000 -0.000000 1.000000
v 2.550000 -0.000000 1.000000
v -2.450000 -0.000000 0.900000
v 2.450000 -0.000000 0.900000
v -2.250000 -0.000000 0.700000
v -0.050000 -0.000000 0.700000
v -0.950000 -0.000000 0.200000
v -0.850000 -0.000000 0.200000
v 0.050000 -0.000000 0.700000
v 2.250000 -0.000000 0.700000
v 0.650000 -0.000000 0.200000
v 1.150000 -0.000000 0.200000
v -2.050000 -0.000000 0.100000
v -1.250000 -0.000000 0.100000
v 0.650000 -0.000000 0.100000
v 0.750000 -0.000000 0.100000
v 1.050000 -0.000000 0.100000
v 1.150000 -0.000000 0.100000
v 1.250000 -0.000000 0.100000
v 2.050000 -0.000000 0.100000
v -1.050000 0.000000 0.000000
v -0.950000 0.000000 0.000000
v -0.850000 0.000000 0.000000
v -0.750000 0.000000 0.000000
v 0.750000 0.000000 -0.100000
v 0.850000 0.000000 -0.100000
v 0.950000 0.000000 -0.100000
v 1.050000 0.000000 -0.100000
v -2.050000 0.000000 -0.200000
v -1.250000 0.000000 -0.200000
v -1.150000 0.000000 -0.200000
v -1.050000 0.000000 -0.200000
v -0.750000 0.000000 -0.200000
v -0.650000 0.000000 -0.200000
v 1.250000 0.000000 -0.200000
v 2.050000 0.000000 -0.200000
v -1.150000 0.000000 -0.300000
v -0.650000 0.000000 -0.300000
v 0.850000 0.000000 -0.300000
v 0.950000 0.000000 -0.300000
v -2.250000 0.000000 -0.700000
v -0.050000 0.000000 -0.700000
v 0.050000 0.000000 -0.700000
v 2.250000 0.000000 -0.700000
v -2.450000 0.000000 -0.900000
v 2.450000 0.000000 -0.900000
v -2.550000 0.000000 -1.000000
v 2.550000 0.000000 -1.000000
vt 0.849609 0.500000
vt 0.849609 0.500000
vt 0.849609 0.500000
vt 0.849609 0.500000
vt 0.919922 0.500000
vt 0.919922 0.500000
vt 0.919922 0.500000
vt 0.919922 0.500000
vt 0.849609 0.500000
vt 0.849609 0.500000
vt 0.849609 0.500000
vt 0.849609 0.500000
vt 0.849609 0.500000
vt 0.849609 0.500000
vt 0.849609 0.500000
vt 0.849609 0.500000
vt 0.919922 0.500000
vt 0.919922 0.500000
vt 0.919922 0.500000
vt 0.919922 0.500000
vt 0.849609 0.500000
vt 0.849609 0.500000
vt 0.849609 0.500000
vt 0.849609 0.500000
vt 0.849609 0.500000
vt 0.849609 0.500000
vt 0.849609 0.500000
vt 0.849609 0.500000
vt 0.919922 0.500000
vt 0.919922 0.500000
vt 0.919922 0.500000
vt 0.919922 0.500000
vt 0.755859 0.500000
vt 0.755859 0.500000
vt 0.755859 0.500000
vt 0.755859 0.500000
vt 0.919922 0.500000
vt 0.919922 0.500000
vt 0.919922 0.500000
vt 0.919922 0.500000
vt 0.849609 0.500000
vt 0.849609 0.500000
vt 0.849609 0.500000
vt 0.849609 0.500000
vt 0.849609 0.500000
vt 0.849609 0.500000
vt 0.849609 0.500000
vt 0.849609 0.500000
vt 0.919922 0.500000
vt 0.919922 0.500000
vt 0.919922 0.500000
vt 0.919922 0.500000
vt 0.755859 0.500000
vt 0.755859 0.500000
vt 0.755859 0.500000
vt 0.755859 0.500000
vt 0.919922 0.500000
vt 0.919922 0.500000
vt 0.919922 0.500000
vt 0.919922 0.500000
vt 0.849609 0.500000
vt 0.849609 0.500000
vt 0.849609 0.500000
vt 0.849609 0.500000
vt 0.849609 0.500000
vt 0.849609 0.500000
vt 0.849609 0.500000
vt 0.849609 0.500000
vt 0.623047 0.500000
vt 0.623047 0.500000
vt 0.623047 0.500000
vt 0.623047 0.500000
vt 0.623047 0.500000
vt 0.623047 0.500000
vt 0.623047 0.500000
vt 0.623047 0.500000
vt 0.623047 0.500000
vt 0.623047 0.500000
vt 0.623047 0.500000
vt 0.623047 0.500000
vt 0.849609 0.500000
vt 0.849609 0.500000
vt 0.849609 0.500000
vt 0.849609 0.500000
vt 0.919922 0.500000
vt 0.919922 0.500000
vt 0.919922 0.500000
vt 0.919922 0.500000
vt 0.919922 0.500000
vt 0.919922 0.500000
vt 0.919922 0.500000
vt 0.919922 0.500000
vt 0.919922 0.500000
vt 0.919922 0.500000
vt 0.919922 0.500000
vt 0.755859 0.500000
vt 0.755859 0.500000
vt 0.755859 0.500000
vt 0.755859 0.500000
vt 0.755859 0.500000
vt 0.919922 0.500000
vt 0.755859 0.500000
vt 0.919922 0.500000
vt 0.919922 0.500000
vt 0.919922 0.500000
vt 0.755859 0.500000
vt 0.755859 0.500000
vt 0.755859 0.500000
vt 0.919922 0.500000
vt 0.919922 0.500000
vt 0.755859 0.500000
vt 0.919922 0.500000
vt 0.755859 0.500000
vt 0.919922 0.500000
vt 0.919922 0.500000
vt 0.755859 0.500000
vt 0.755859 0.500000
vt 0.919922 0.500000
vt 0.919922 0.500000
vt 0.755859 0.500000
vt 0.755859 0.500000
vt 0.755859 0.500000
vt 0.755859 0.500000
vt 0.919922 0.500000
vt 0.919922 0.500000
vt 0.755859 0.500000
vt 0.919922 0.500000
vt 0.755859 0.500000
vt 0.755859 0.500000
vt 0.919922 0.500000
vt 0.755859 0.500000
vt 0.919922 0.500000
vt 0.755859 0.500000
vt 0.919922 0.500000
vt 0.919922 0.500000
vt 0.919922 0.500000
vt 0.755859 0.500000
vt 0.755859 0.500000
vt 0.755859 0.500000
vt 0.919922 0.500000
vt 0.755859 0.500000
vt 0.919922 0.500000
vt 0.755859 0.500000
vt 0.755859 0.500000
vt 0.755859 0.500000
vt 0.919922 0.500000
vt 0.755859 0.500000
vt 0.919922 0.500000
vt 0.919922 0.500000
vt 0.755859 0.500000
vt 0.919922 0.500000
vt 0.755859 0.500000
vt 0.919922 0.500000
vt 0.755859 0.500000
vt 0.755859 0.500000
vt 0.755859 0.500000
vt 0.919922 0.500000
vt 0.919922 0.500000
vt 0.755859 0.500000
vt 0.919922 0.500000
vt 0.849609 0.500000
vt 0.849609 0.500000
vt 0.849609 0.500000
vt 0.849609 0.500000
vn -1.0000 0.0000 0.0000
vn 1.0000 0.0000 0.0000
vn 0.0000 0.0000 1.0000
vn 0.0000 0.0000 -1.0000
vn 0.0000 -1.0000 -0.0000
vn 0.0000 1.0000 0.0000
usemtl palette.003
s 1
f 1/1/1 2/2/1 3/3/1
f 4/4/1 2/2/1 1/1/1
f 5/5/1 6/6/1 7/7/1
f 8/8/1 6/6/1 5/5/1
f 9/9/1 10/10/1 11/11/1
f 12/12/1 10/10/1 9/9/1
f 13/13/2 14/14/2 15/15/2
f 15/15/2 14/14/2 16/16/2
f 17/17/2 18/18/2 19/19/2
f 19/19/2 18/18/2 20/20/2
f 21/21/2 22/22/2 23/23/2
f 23/23/2 22/22/2 24/24/2
f 25/25/3 26/26/3 27/27/3
f 28/28/3 26/26/3 25/25/3
f 29/29/3 30/30/3 31/31/3
f 32/32/3 30/30/3 29/29/3
f 33/33/3 32/34/3 29/35/3
f 34/36/3 32/34/3 33/33/3
f 35/37/3 34/38/3 33/39/3
f 36/40/3 34/38/3 35/37/3
f 37/41/3 38/42/3 39/43/3
f 40/44/3 38/42/3 37/41/3
f 41/45/4 42/46/4 43/47/4
f 43/47/4 42/46/4 44/48/4
f 45/49/4 46/50/4 47/51/4
f 47/51/4 46/50/4 48/52/4
f 47/53/4 48/54/4 49/55/4
f 49/55/4 48/54/4 50/56/4
f 49/57/4 50/58/4 51/59/4
f 51/59/4 50/58/4 52/60/4
f 53/61/4 54/62/4 55/63/4
f 55/63/4 54/62/4 56/64/4
f 57/65/5 58/66/5 59/67/5
f 60/68/5 58/66/5 57/65/5
f 61/69/6 62/70/6 63/71/6
f 63/71/6 62/70/6 64/72/6
f 64/72/6 62/70/6 65/73/6
f 65/73/6 62/70/6 66/74/6
f 61/69/6 63/71/6 67/75/6
f 66/74/6 62/70/6 68/76/6
f 69/77/6 70/78/6 71/79/6
f 70/78/6 68/76/6 71/79/6
f 61/69/6 67/75/6 71/79/6
f 67/75/6 69/77/6 71/79/6
f 68/76/6 62/70/6 72/80/6
f 71/79/6 68/76/6 72/80/6
f 73/81/6 74/82/6 75/83/6
f 75/83/6 74/82/6 76/84/6
f 77/85/6 78/86/6 79/87/6
f 79/87/6 78/86/6 80/88/6
f 81/89/6 82/90/6 83/91/6
f 83/91/6 82/90/6 84/92/6
f 77/85/6 79/87/6 85/93/6
f 85/93/6 79/87/6 86/94/6
f 81/89/6 83/91/6 87/95/6
f 83/96/6 84/97/6 87/98/6
f 87/98/6 84/97/6 88/99/6
f 88/99/6 84/97/6 89/100/6
f 84/92/6 82/90/6 90/101/6
f 89/100/6 84/97/6 90/102/6
f 90/101/6 82/90/6 91/103/6
f 91/103/6 82/90/6 92/104/6
f 86/94/6 79/87/6 93/105/6
f 79/106/6 80/107/6 94/108/6
f 93/105/6 79/87/6 94/109/6
f 80/88/6 78/86/6 95/110/6
f 94/108/6 80/107/6 95/111/6
f 95/110/6 78/86/6 96/112/6
f 88/99/6 89/100/6 97/113/6
f 87/95/6 88/114/6 97/115/6
f 97/113/6 89/100/6 98/116/6
f 98/116/6 89/100/6 99/117/6
f 89/118/6 90/101/6 100/119/6
f 99/117/6 89/100/6 100/120/6
f 90/101/6 91/103/6 100/119/6
f 85/121/6 86/122/6 101/123/6
f 77/85/6 85/93/6 101/124/6
f 86/94/6 93/105/6 102/125/6
f 101/123/6 86/122/6 102/126/6
f 102/125/6 93/105/6 103/127/6
f 93/128/6 94/108/6 104/129/6
f 103/127/6 93/105/6 104/130/6
f 95/111/6 96/131/6 104/129/6
f 94/108/6 95/111/6 104/129/6
f 96/112/6 78/86/6 105/132/6
f 104/129/6 96/131/6 105/133/6
f 105/132/6 78/86/6 106/134/6
f 100/119/6 91/103/6 107/135/6
f 99/136/6 100/119/6 107/135/6
f 91/137/6 92/138/6 107/139/6
f 92/104/6 82/90/6 108/140/6
f 107/139/6 92/138/6 108/141/6
f 102/125/6 103/127/6 109/142/6
f 103/143/6 104/129/6 109/144/6
f 105/133/6 106/145/6 109/144/6
f 101/124/6 102/125/6 109/142/6
f 104/129/6 105/133/6 109/144/6
f 106/134/6 78/86/6 110/146/6
f 109/144/6 106/145/6 110/147/6
f 97/115/6 98/148/6 111/149/6
f 98/116/6 99/117/6 111/150/6
f 107/135/6 108/140/6 112/151/6
f 111/150/6 99/117/6 112/152/6
f 99/136/6 107/135/6 112/151/6
f 77/85/6 101/124/6 113/153/6
f 109/142/6 110/146/6 113/153/6
f 101/124/6 109/142/6 113/153/6
f 78/154/6 81/155/6 114/156/6
f 113/153/6 110/146/6 114/157/6
f 110/146/6 78/86/6 114/157/6
f 97/115/6 111/149/6 115/158/6
f 114/156/6 81/155/6 115/159/6
f 111/149/6 112/151/6 115/158/6
f 87/95/6 97/115/6 115/158/6
f 81/89/6 87/95/6 115/158/6
f 108/140/6 82/90/6 116/160/6
f 115/158/6 112/151/6 116/160/6
f 112/151/6 108/140/6 116/160/6
f 73/81/6 75/83/6 117/161/6
f 76/84/6 74/82/6 118/162/6
f 73/81/6 117/161/6 119/163/6
f 117/161/6 118/162/6 119/163/6
f 118/162/6 74/82/6 120/164/6
f 119/163/6 118/162/6 120/164/6
